<svg width="30" height="24" viewBox="0 0 30 24" fill="none" xmlns="http://www.w3.org/2000/svg">
<path d="M10.8829 0C7.09137 0 3.89359 0.200992 3.41652 0.467981C2.58323 0.740969 1.95617 2.55789 1.95409 4.7138V5.78476H1.72701C1.70376 5.73556 1.67285 5.69004 1.63535 5.64976C1.73371 5.54103 1.78773 5.40179 1.78743 5.25778V4.7138C1.80068 4.58655 1.76158 4.45935 1.67848 4.3594C1.59537 4.25944 1.47485 4.19463 1.34265 4.17883H0.44894C0.315979 4.19487 0.194855 4.26028 0.111522 4.36102C0.0281886 4.46177 -0.0107231 4.58985 0.00312487 4.7178V4.7158V5.25978C0.00312487 5.40977 0.0604142 5.54777 0.155202 5.65276L0.15416 5.65176C0.0558009 5.7605 0.00177879 5.89974 0.00208325 6.04375V8.72964C-2.42522e-10 8.74464 0 8.76063 0 8.77763C0 9.02762 0.194784 9.23462 0.446856 9.26461H1.34161C1.4254 9.26048 1.50618 9.2333 1.57433 9.18631C1.64248 9.13933 1.69512 9.07453 1.72597 8.99963L1.72701 8.99662H1.95409V13.8184C1.95409 14.0094 2.16762 14.1864 2.5124 14.2814V14.9074C2.01971 14.9684 1.6791 15.1814 1.6791 15.4254V20.7851C1.64408 21.4493 1.84294 22.1055 2.24366 22.6481L2.23741 22.6391V23.56C2.23741 23.803 2.44261 24 2.69572 24H4.56856C4.69011 24 4.80669 23.9536 4.89264 23.8711C4.97859 23.7886 5.02687 23.6767 5.02687 23.56V22.929H16.742V23.56C16.742 23.803 16.9472 24 17.2003 24H19.0732C19.1334 24 19.1929 23.9886 19.2486 23.9665C19.3042 23.9444 19.3547 23.912 19.3972 23.8711C19.4398 23.8303 19.4736 23.7818 19.4966 23.7284C19.5196 23.675 19.5315 23.6178 19.5315 23.56V22.6401C19.9298 22.0978 20.1265 21.4427 20.0898 20.7801V20.7871V15.4274C20.0898 15.1834 19.745 14.9704 19.2565 14.9094V14.2834C19.6013 14.1884 19.8138 14.0114 19.8148 13.8204V9.00063H20.0419C20.1044 9.15262 20.2523 9.25961 20.4262 9.26861H21.3168C21.4498 9.25257 21.5709 9.18716 21.6542 9.08642C21.7376 8.98567 21.7765 8.85759 21.7626 8.72964V8.73164V6.04575C21.7629 5.90144 21.7089 5.7619 21.6106 5.65276L21.6116 5.65376C21.71 5.54503 21.764 5.40579 21.7637 5.26178V4.7198C21.7769 4.59255 21.7378 4.46535 21.6547 4.3654C21.5716 4.26544 21.4511 4.20063 21.3189 4.18483H20.4242C20.2912 4.20087 20.1701 4.26628 20.0867 4.36702C20.0034 4.46777 19.9645 4.59585 19.9783 4.7238V4.7218V5.26578C19.9783 5.41577 20.0356 5.55377 20.1304 5.65876L20.1294 5.65776C20.0928 5.69706 20.0623 5.74117 20.0388 5.78876L20.0377 5.79176H19.8106V4.7158C19.8106 2.54889 19.1773 0.72397 18.3378 0.464981C17.8274 0.198992 14.6452 0.00199992 10.8829 0.00199992V0ZM3.22903 3.10687H18.5357C18.8055 3.10687 19.0305 3.29086 19.0825 3.53585L19.0836 3.53885C19.1898 4.04883 19.2502 4.63581 19.2502 5.23678V5.27478V5.27278V8.99963C19.2502 9.29561 19.0003 9.5356 18.6919 9.5356H3.07071C2.92263 9.5356 2.78062 9.47913 2.67592 9.37862C2.57122 9.2781 2.5124 9.14178 2.5124 8.99963V5.23778C2.5124 4.63681 2.57281 4.04983 2.68843 3.48186L2.67906 3.53885C2.70414 3.41708 2.77248 3.30744 2.87241 3.22866C2.97233 3.14987 3.09764 3.10683 3.22695 3.10687H3.22903ZM3.90713 14.8924H5.10291C5.25186 14.8924 5.37269 15.0044 5.38103 15.1454V15.1464L5.57998 18.6282V18.6422C5.57998 18.7902 5.45498 18.9102 5.30082 18.9102H3.90713C3.83309 18.9102 3.76209 18.882 3.70974 18.8317C3.65739 18.7815 3.62797 18.7133 3.62797 18.6422V15.1604C3.62797 15.0124 3.75297 14.8924 3.90713 14.8924ZM16.6618 14.8924H17.8576C18.0118 14.8924 18.1367 15.0124 18.1367 15.1604V18.6392C18.1367 18.7872 18.0118 18.9072 17.8576 18.9072H16.4629C16.3888 18.9072 16.3178 18.879 16.2655 18.8287C16.2131 18.7785 16.1837 18.7103 16.1837 18.6392V18.6242L16.3827 15.1434C16.3931 15.0034 16.5139 14.8934 16.6608 14.8934L16.6618 14.8924ZM6.27891 15.5324H15.4869C15.5639 15.5324 15.6264 15.5924 15.6264 15.6663V15.8263C15.6264 15.9003 15.5639 15.9603 15.4869 15.9603H6.27891C6.24189 15.9603 6.20639 15.9462 6.18021 15.9211C6.15403 15.896 6.13933 15.8619 6.13933 15.8263V15.6663C6.13933 15.5924 6.20183 15.5324 6.27891 15.5324ZM6.33411 16.4963H15.4306C15.5077 16.4963 15.5702 16.5563 15.5702 16.6303V16.7903C15.5702 16.8643 15.5077 16.9243 15.4306 16.9243H6.33411C6.29709 16.9243 6.26159 16.9102 6.23542 16.885C6.20924 16.8599 6.19453 16.8258 6.19453 16.7903V16.6303C6.19453 16.5563 6.25703 16.4963 6.33411 16.4963ZM6.39036 17.4603H15.3754C15.4525 17.4603 15.515 17.5203 15.515 17.5943V17.7543C15.515 17.8283 15.4525 17.8883 15.3754 17.8883H6.39036C6.3545 17.8883 6.32003 17.875 6.2942 17.8511C6.26836 17.8272 6.25317 17.7947 6.25182 17.7603V17.6003C6.25182 17.5263 6.31432 17.4663 6.3914 17.4663L6.39036 17.4603ZM6.44661 18.4242H15.3192C15.3962 18.4242 15.4587 18.4842 15.4587 18.5582V18.7182C15.4587 18.7922 15.3962 18.8522 15.3192 18.8522H6.44661C6.40959 18.8522 6.37409 18.8381 6.34791 18.813C6.32173 18.7878 6.30703 18.7538 6.30703 18.7182V18.5582C6.30703 18.4842 6.36953 18.4242 6.44661 18.4242Z" fill="white"/>
<path d="M27.0556 20.7616H26.6614L26.5217 20.6268C27.0276 20.04 27.3056 19.2909 27.3051 18.5161C27.3051 17.8746 27.1148 17.2476 26.7584 16.7142C26.4021 16.1808 25.8955 15.7651 25.3028 15.5196C24.7102 15.2741 24.0581 15.2099 23.4289 15.335C22.7997 15.4602 22.2218 15.7691 21.7682 16.2227C21.3146 16.6763 21.0057 17.2542 20.8806 17.8834C20.7554 18.5125 20.8196 19.1647 21.0651 19.7573C21.3106 20.35 21.7263 20.8565 22.2597 21.2129C22.7931 21.5693 23.4202 21.7595 24.0616 21.7595C24.865 21.7595 25.6035 21.4651 26.1724 20.9761L26.3071 21.1158V21.51L28.802 24L29.5455 23.2565L27.0556 20.7616ZM24.0616 20.7616C22.8192 20.7616 21.8162 19.7586 21.8162 18.5161C21.8162 17.2736 22.8192 16.2707 24.0616 16.2707C25.3041 16.2707 26.3071 17.2736 26.3071 18.5161C26.3071 19.7586 25.3041 20.7616 24.0616 20.7616Z" fill="white"/>
</svg>
