<svg width="23" height="24" viewBox="0 0 23 24" fill="none" xmlns="http://www.w3.org/2000/svg">
<path d="M10.9342 0V4.53503H11.4119C12.2028 4.53503 12.6327 5.13121 12.6752 5.73758C12.6964 6.04331 12.6115 6.32357 12.4257 6.52229C12.2399 6.72611 11.9427 6.87898 11.4119 6.87898C11.1465 6.87898 10.8227 6.73631 10.5839 6.50191C10.3397 6.27261 10.1911 5.96178 10.1911 5.70701H9.23567C9.23567 6.26752 9.51168 6.77197 9.90446 7.15414C10.3025 7.53121 10.828 7.79618 11.4119 7.79618C12.155 7.79618 12.7601 7.5414 13.1369 7.13376C13.5191 6.72102 13.6677 6.18599 13.6306 5.67643C13.5669 4.78471 12.9193 3.88382 11.8896 3.66777V0H10.9342ZM8.39172 7.15924L1.07962 11.7707H2.81529L8.91189 7.92357L8.39172 7.15924ZM14.4321 7.15924L13.9119 7.92357L20.0106 11.7707H21.741L14.4321 7.15924ZM0 12.6879V24H22.8238V12.6879H0ZM2.01699 13.8599H2.9724V22.828H2.01699V13.8599ZM4.56476 13.8599H5.52017V22.828H4.56476V13.8599ZM7.11253 13.8599H8.06794V22.828H7.11253V13.8599ZM9.6603 13.8599H10.6157V22.828H9.6603V13.8599ZM12.2081 13.8599H13.1635V22.828H12.2081V13.8599ZM14.7558 13.8599H15.7113V22.828H14.7558V13.8599ZM17.3036 13.8599H18.259V22.828H17.3036V13.8599ZM19.8514 13.8599H20.8068V22.828H19.8514V13.8599Z" fill="white"/>
</svg>
