<svg width="35" height="24" viewBox="0 0 35 24" fill="none" xmlns="http://www.w3.org/2000/svg">
<path d="M0 5.25H15.2344L16.4062 7.5H1.17188L0 5.25ZM1.5625 9.75H16.7969L17.9688 12H2.73438L1.5625 9.75ZM26.9531 21.75C28.25 21.75 29.2969 20.745 29.2969 19.5C29.2969 18.255 28.25 17.25 26.9531 17.25C25.6562 17.25 24.6094 18.255 24.6094 19.5C24.6094 20.745 25.6562 21.75 26.9531 21.75ZM29.2969 8.25H25.3906V12H32.3594L29.2969 8.25ZM11.3281 21.75C12.625 21.75 13.6719 20.745 13.6719 19.5C13.6719 18.255 12.625 17.25 11.3281 17.25C10.0312 17.25 8.98438 18.255 8.98438 19.5C8.98438 20.745 10.0312 21.75 11.3281 21.75ZM30.0781 6L34.7656 12V19.5H31.6406C31.6406 21.99 29.5469 24 26.9531 24C24.3594 24 22.2656 21.99 22.2656 19.5H16.0156C16.0156 21.99 13.9062 24 11.3281 24C8.73438 24 6.64062 21.99 6.64062 19.5H3.51562V14.25H6.64062V16.5H7.82813C8.6875 15.585 9.9375 15 11.3281 15C12.7188 15 13.9688 15.585 14.8281 16.5H22.2656V3H3.51562C3.51562 1.335 4.90625 0 6.64062 0H25.3906V6H30.0781Z" fill="white"/>
</svg>
